<?xml version="1.0" standalone="no"?>
<!DOCTYPE svg PUBLIC "-//W3C//DTD SVG 20010904//EN"
 "http://www.w3.org/TR/2001/REC-SVG-20010904/DTD/svg10.dtd">
<svg version="1.0" xmlns="http://www.w3.org/2000/svg"
 width="1024.000000pt" height="1024.000000pt" viewBox="0 0 1024.000000 1024.000000"
 preserveAspectRatio="xMidYMid meet">

<g transform="translate(0.000000,1024.000000) scale(0.100000,-0.100000)"
fill="#000000" stroke="none">
<path d="M3711 9254 c-18 -14 -33 -39 -36 -58 -9 -43 17 -103 49 -117 37 -17
91 -3 120 32 81 96 -38 224 -133 143z"/>
<path d="M4935 9240 c-169 -23 -310 -118 -376 -254 -39 -83 -52 -155 -47 -267
4 -85 9 -104 43 -174 72 -150 183 -234 358 -270 19 -4 52 -36 114 -110 47 -58
89 -105 93 -105 11 0 592 563 618 599 l23 32 -118 137 c-241 280 -314 344
-442 387 -77 27 -181 36 -266 25z m209 -180 c30 -12 60 -27 66 -35 15 -19 15
-19 -51 2 -67 20 -183 23 -227 4 l-33 -14 41 -34 c37 -32 40 -39 40 -84 0 -95
-62 -159 -153 -159 -41 0 -53 5 -77 30 -15 17 -30 30 -33 30 -3 0 -8 -22 -12
-50 -4 -27 -11 -52 -15 -55 -29 -18 -16 164 15 225 23 44 112 117 168 139 72
28 197 28 271 1z m-99 -130 c7 -12 -12 -40 -26 -40 -5 0 -9 11 -9 25 0 25 23
35 35 15z"/>
<path d="M3136 9205 c-25 -19 -17 -19 25 0 24 10 28 14 14 14 -11 0 -29 -6
-39 -14z"/>
<path d="M6455 9063 c-42 -82 -81 -152 -85 -156 -3 -4 -29 2 -56 14 -90 39
-215 89 -224 89 -12 0 -140 -238 -390 -725 -133 -259 -211 -405 -216 -405 -3
0 -19 7 -36 16 -49 25 -188 71 -239 78 -40 6 -75 -3 -260 -62 -118 -38 -220
-71 -228 -73 -16 -4 -94 206 -160 437 -37 125 -44 139 -186 375 -81 134 -170
282 -197 329 -66 113 -69 116 -115 104 l-38 -9 -6 -130 c-4 -71 -10 -252 -14
-400 l-8 -270 52 -160 c28 -88 71 -216 95 -285 63 -177 61 -166 29 -173 -16
-4 -37 -9 -49 -12 -26 -8 0 -66 -289 650 -73 182 -152 373 -174 425 -23 52
-54 123 -68 158 -28 68 -33 71 -103 46 -25 -9 -92 -22 -150 -30 -161 -21 -254
-48 -377 -109 -138 -69 -226 -142 -316 -262 l-69 -90 -46 15 c-35 12 -89 16
-207 16 -149 0 -166 -2 -245 -28 -99 -33 -223 -94 -333 -164 -43 -28 -103 -60
-133 -72 -30 -12 -54 -29 -54 -37 0 -7 22 -69 49 -136 28 -67 86 -212 129
-322 44 -110 123 -305 177 -433 53 -129 95 -235 93 -236 -1 -2 -52 -12 -113
-23 -60 -12 -118 -24 -127 -28 -15 -6 -18 -2 -18 22 0 43 -28 130 -62 194 -91
172 -280 261 -476 224 -315 -60 -470 -404 -306 -679 19 -32 33 -59 32 -60 -2
0 -104 -35 -227 -76 -134 -45 -240 -86 -262 -102 -112 -81 -108 -261 7 -340
21 -15 129 -58 239 -96 110 -38 232 -82 270 -98 l70 -30 3 -308 2 -308 -34
-38 c-55 -62 -60 -86 -116 -569 -6 -51 -8 -96 -5 -100 10 -9 134 -38 140 -33
3 3 5 28 5 56 0 28 3 74 6 103 6 50 7 51 32 40 24 -11 24 -11 18 -114 l-7
-103 53 0 c99 0 98 -1 98 106 0 92 0 94 24 94 19 0 24 -6 30 -37 3 -21 6 -62
6 -90 0 -29 2 -53 6 -53 3 0 35 7 72 15 l67 16 -3 42 c-2 23 -14 142 -28 264
-28 258 -42 308 -109 373 l-45 44 0 258 c0 220 2 258 15 258 8 0 76 -22 152
-49 76 -28 224 -80 328 -116 463 -161 686 -241 910 -324 225 -83 240 -90 247
-117 5 -16 47 -177 94 -359 47 -181 119 -458 160 -615 41 -157 108 -419 149
-583 128 -511 146 -559 253 -704 143 -192 303 -303 547 -380 l90 -28 1257 -3
1256 -2 31 26 c18 15 38 38 45 53 24 47 321 829 433 1141 24 69 75 208 113
310 38 102 96 261 130 353 33 93 80 216 103 275 l42 107 5 329 5 328 180 65
c99 35 243 86 320 114 197 71 862 304 1095 384 282 98 308 113 351 209 25 57
22 112 -11 175 -39 77 -47 81 -615 279 -181 63 -345 120 -362 126 -18 6 -33
14 -33 18 0 4 31 32 69 62 144 115 210 236 211 386 0 65 -21 153 -51 212 -34
67 -122 152 -187 181 -255 115 -520 -21 -565 -290 -6 -37 -18 -74 -27 -81 -8
-7 -76 -55 -151 -107 l-137 -95 -66 28 c-36 15 -66 31 -66 36 0 4 31 58 68
120 217 353 449 749 470 800 34 83 29 213 -10 299 -78 167 -267 263 -450 227
-89 -17 -154 -53 -220 -123 l-58 -61 -62 29 c-35 16 -66 32 -70 35 -4 3 11 39
33 80 92 175 122 241 113 249 -10 9 -398 175 -564 240 -58 23 -141 58 -186 77
-45 18 -86 34 -91 34 -6 0 -45 -66 -88 -147z m380 -158 c325 -135 330 -137
334 -141 6 -5 -32 -74 -40 -74 -4 0 -9 4 -11 8 -1 4 -84 43 -183 86 -99 43
-202 90 -229 103 l-49 25 -18 -23 c-10 -13 -35 -55 -55 -94 -20 -38 -38 -72
-40 -74 -3 -3 -62 17 -73 25 -2 2 20 47 49 101 29 54 60 111 68 126 8 16 19
26 26 23 6 -2 106 -44 221 -91z m-2562 -360 c28 -49 63 -103 79 -118 27 -27
39 -83 22 -100 -4 -4 -29 10 -56 29 -26 20 -54 34 -61 31 -6 -2 -20 -25 -29
-51 -15 -40 -15 -50 -3 -79 16 -38 175 -509 175 -518 0 -3 -11 -11 -25 -17
-20 -9 -27 -9 -30 1 -3 6 -45 133 -95 281 -49 149 -99 283 -111 299 -18 24
-19 33 -10 54 7 15 11 97 11 216 l0 192 41 -65 c23 -35 64 -105 92 -155z
m2045 121 c171 -82 339 -157 567 -256 107 -46 206 -91 214 -96 6 -5 -40 -64
-49 -64 -5 0 -26 11 -46 25 -69 47 -37 92 -330 -463 -77 -144 -143 -272 -149
-283 -6 -11 -17 -18 -25 -15 -8 2 -100 36 -205 74 -104 39 -248 92 -320 118
-71 26 -172 62 -224 81 -52 19 -98 36 -103 39 -4 3 10 38 32 77 22 40 106 198
186 352 158 302 264 495 271 495 3 0 84 -38 181 -84z m-2833 37 c30 -63 445
-1084 445 -1097 0 -2 -31 -6 -68 -9 -147 -12 -340 -80 -485 -171 -41 -25 -77
-46 -80 -46 -6 0 -61 129 -56 133 2 1 31 21 64 44 124 84 274 147 383 160 32
3 56 12 59 20 9 22 -3 27 -63 25 -120 -3 -294 -71 -407 -158 -31 -24 -59 -44
-62 -44 -6 0 -45 91 -45 107 0 16 54 65 118 106 68 44 192 94 264 108 107 20
122 25 126 37 7 21 -40 30 -105 21 -122 -17 -282 -86 -377 -164 -31 -25 -57
-45 -60 -45 -6 0 -46 97 -46 113 0 26 95 112 165 149 97 50 211 81 288 76 56
-3 62 -1 62 17 0 18 -6 20 -60 19 -36 -1 -92 -12 -140 -28 -102 -34 -264 -126
-303 -171 l-31 -34 -79 157 c-44 86 -87 171 -96 187 -9 17 -26 53 -37 80 l-21
50 -34 -39 c-19 -22 -34 -46 -34 -55 0 -24 -15 -1 -35 51 -20 55 -18 60 63
156 131 154 399 278 608 281 60 1 60 1 79 -36z m3479 -39 c33 -13 7 -104 -30
-104 -19 0 -74 28 -74 38 0 4 9 22 20 40 20 32 47 40 84 26z m834 -200 l37
-17 -30 -7 c-80 -19 -157 -78 -187 -146 -12 -26 -27 -26 -78 2 -56 30 -56 28
-21 83 46 71 98 101 179 101 36 0 78 -7 100 -16z m-5348 -164 c118 -19 119
-19 141 -62 11 -22 19 -42 17 -44 -3 -2 -32 1 -67 7 -34 6 -64 9 -67 7 -2 -3
7 -28 21 -56 14 -27 25 -54 25 -58 0 -5 -35 -10 -79 -12 -102 -3 -217 -32
-316 -81 -91 -45 -127 -74 -119 -96 9 -23 35 -18 78 15 74 56 282 120 390 120
l61 0 18 -58 c10 -31 20 -62 23 -68 3 -8 -30 -13 -103 -17 -128 -6 -250 -43
-338 -101 -56 -38 -66 -55 -41 -75 10 -8 19 -6 38 9 34 26 172 86 242 104 31
8 94 18 139 22 l84 6 21 -53 c12 -30 24 -66 28 -81 6 -28 6 -28 -49 -28 -94 0
-233 -38 -339 -92 -72 -37 -98 -55 -98 -69 0 -27 22 -24 51 7 65 70 307 146
414 130 39 -6 46 -11 63 -49 42 -88 44 -84 -60 -89 -105 -6 -182 -29 -299 -90
-85 -43 -114 -69 -106 -93 7 -16 42 -21 51 -6 11 17 118 72 198 102 86 32 215
54 249 44 15 -5 79 -111 79 -132 0 -2 -28 -3 -62 -3 -134 0 -313 -55 -405
-126 -63 -48 -31 -81 39 -40 102 60 244 105 379 121 l57 7 17 -46 c10 -26 16
-48 13 -51 -2 -2 -71 -28 -154 -56 -82 -28 -196 -74 -254 -102 -58 -27 -112
-49 -120 -48 -8 0 -39 4 -68 8 l-54 8 -159 390 c-88 215 -182 450 -210 523
-58 153 -64 130 54 209 190 126 381 173 577 143z m5040 -100 c33 -17 60 -34
60 -38 0 -4 15 -13 33 -20 18 -6 54 -25 79 -41 l47 -30 -15 -30 -15 -30 -92
47 c-51 26 -112 55 -137 65 -73 28 -74 29 -54 70 10 21 21 37 26 37 5 0 35
-14 68 -30z m-117 -185 c32 -19 64 -35 71 -35 7 0 24 -8 37 -19 13 -10 48 -30
77 -45 l52 -26 -16 -33 c-9 -17 -25 -43 -34 -57 -10 -14 -82 -131 -160 -260
-79 -129 -156 -254 -171 -277 -16 -23 -29 -44 -29 -46 0 -6 -128 -218 -191
-317 -30 -47 -72 -115 -94 -152 -38 -63 -43 -68 -88 -78 -27 -5 -56 -14 -66
-20 -31 -16 -155 -149 -168 -180 -9 -21 -17 -27 -33 -23 -24 6 -23 -4 -8 238
l11 190 87 135 c182 284 211 331 332 530 250 411 314 510 327 510 3 0 32 -16
64 -35z m-1866 -411 c158 -58 394 -144 523 -190 271 -98 533 -195 539 -200 6
-6 -17 -53 -51 -105 l-30 -47 -59 24 c-32 13 -102 39 -156 58 -106 37 -470
168 -841 302 -128 46 -243 84 -257 84 -31 0 -118 -28 -975 -315 l-725 -242
-280 -6 c-154 -3 -281 -4 -283 -2 -2 1 212 74 475 160 263 87 726 240 1028
342 498 167 741 241 787 243 9 0 146 -48 305 -106z m2989 -41 c38 -19 44 -33
14 -33 -12 0 -34 -7 -50 -15 -17 -9 -40 -13 -54 -9 -36 9 -88 -21 -119 -69
-25 -37 -28 -50 -25 -110 l3 -67 -65 -43 c-104 -69 -205 -140 -211 -150 -8
-11 -79 2 -79 14 0 5 62 50 137 99 l138 89 0 93 c0 81 3 97 23 126 31 42 84
83 125 93 43 11 120 2 163 -18z m-3081 -151 c-3 -3 -11 0 -18 7 -9 10 -8 11 6
5 10 -3 15 -9 12 -12z m242 -78 c-3 -3 -12 -4 -19 -1 -8 3 -5 6 6 6 11 1 17
-2 13 -5z m-4243 -93 c23 -10 47 -24 53 -33 11 -12 7 -17 -22 -31 -40 -19 -43
-27 -17 -44 20 -12 47 -97 57 -178 l6 -50 -78 -40 c-42 -21 -104 -60 -138 -85
l-60 -47 -45 28 c-25 15 -64 49 -88 76 -27 30 -39 38 -32 23 9 -19 9 -22 1
-14 -14 13 -41 108 -41 147 0 15 4 35 9 45 6 9 12 28 15 42 8 39 61 112 101
139 78 52 191 61 279 22z m6297 -365 c151 -51 460 -155 687 -231 226 -75 412
-141 412 -145 0 -9 -34 -22 -280 -104 -306 -102 -816 -275 -1155 -391 -170
-59 -335 -115 -365 -124 -84 -28 -673 -231 -975 -338 -148 -52 -367 -127 -485
-168 -118 -40 -301 -103 -406 -139 -105 -36 -200 -66 -210 -66 -11 0 -91 28
-179 61 -380 145 -1138 409 -2260 789 -176 59 -378 129 -450 155 -71 25 -225
79 -342 118 -117 40 -212 75 -213 78 0 9 103 53 171 74 l55 17 225 -73 c123
-40 293 -96 377 -126 83 -29 156 -53 161 -53 6 0 106 -33 223 -74 117 -41 438
-151 713 -246 528 -182 605 -209 1158 -406 192 -68 358 -124 369 -124 12 0
249 79 527 176 278 97 702 243 941 324 239 82 500 171 580 200 80 28 183 64
230 80 47 16 218 74 380 130 162 55 380 128 484 161 104 32 191 61 194 64 6 6
-59 32 -218 84 -80 27 -174 60 -210 74 -36 13 -165 60 -287 103 -123 43 -223
81 -223 85 0 11 83 129 91 129 3 0 130 -42 280 -94z m-2617 -24 c46 -27 39
-45 -23 -61 -51 -14 -57 -13 -137 13 -46 15 -84 31 -84 37 0 5 1 9 3 9 1 0 20
7 42 15 51 19 155 13 199 -13z m-2749 -7 c33 -9 89 -25 124 -37 64 -21 64 -21
700 -7 806 17 1073 18 1176 1 149 -25 310 -64 450 -110 l140 -47 -69 -9 c-58
-7 -80 -5 -149 14 -166 45 -391 85 -532 95 -55 4 -363 0 -685 -9 -322 -8 -682
-16 -800 -17 -195 -1 -220 1 -271 20 -31 11 -76 23 -100 25 -36 4 -38 4 -14
-3 17 -5 23 -9 14 -10 -9 0 -19 -10 -22 -20 -3 -15 1 -21 17 -23 11 -2 -73 -3
-189 -3 -187 0 -220 -3 -300 -23 -95 -25 -134 -29 -175 -18 -14 3 -18 3 -10
-1 8 -5 16 -13 17 -20 4 -16 -34 -36 -53 -29 -9 3 -12 1 -9 -4 3 -6 2 -10 -4
-10 -16 0 -169 -107 -218 -153 -25 -23 -65 -68 -89 -100 -47 -64 -60 -69 -19
-9 26 38 32 58 15 47 -5 -3 -10 0 -11 7 0 7 -7 -3 -15 -22 l-14 -35 6 34 c4
23 3 31 -5 27 -6 -4 -11 -15 -12 -24 0 -14 -2 -14 -8 2 -6 16 -10 13 -28 -22
-11 -23 -22 -39 -25 -36 -3 2 -11 -10 -18 -28 -7 -18 -18 -46 -25 -63 -20 -48
-43 -127 -50 -170 -4 -22 -9 -48 -12 -57 -3 -13 0 -17 14 -13 11 4 9 1 -4 -6
-17 -9 -29 -9 -53 1 -37 15 -38 28 -6 151 104 412 432 669 936 733 74 9 326
-3 385 -19z m5 -108 c-14 -8 -27 -12 -30 -10 -7 6 23 23 40 23 8 0 4 -6 -10
-13z m3056 -172 c59 -49 88 -112 79 -173 -16 -114 -91 -205 -216 -265 -193
-93 -432 -89 -619 9 -129 68 -190 154 -190 272 0 70 -1 69 78 51 48 -12 50
-14 56 -52 24 -146 190 -237 410 -224 146 8 256 57 313 139 26 39 28 49 31
160 2 65 6 118 9 118 3 0 25 -16 49 -35z m-3486 -385 c8 -5 11 -10 5 -10 -5 0
-17 5 -25 10 -8 5 -10 10 -5 10 6 0 17 -5 25 -10z m1374 -1136 c11 -4 16 -19
16 -43 l0 -37 163 -66 c89 -37 250 -101 357 -143 390 -152 913 -368 1113 -460
l57 -26 0 -70 c0 -38 -2 -69 -5 -69 -5 0 -498 201 -575 235 -30 13 -89 37
-130 53 -70 27 -465 187 -520 211 -14 5 -83 33 -155 61 -71 28 -178 71 -236
96 l-106 45 -7 67 c-9 95 -7 152 3 152 5 0 16 -3 25 -6z m-9 -244 c3 -5 1 -10
-4 -10 -6 0 -11 5 -11 10 0 6 2 10 4 10 3 0 8 -4 11 -10z m205 -100 c8 -5 11
-10 5 -10 -5 0 -17 5 -25 10 -8 5 -10 10 -5 10 6 0 17 -5 25 -10z m690 -280
c8 -5 11 -10 5 -10 -5 0 -17 5 -25 10 -8 5 -10 10 -5 10 6 0 17 -5 25 -10z
m135 -50 c13 -6 15 -9 5 -9 -8 0 -22 4 -30 9 -18 12 -2 12 25 0z m2641 -366
c-41 -109 -106 -287 -144 -394 -63 -175 -192 -516 -237 -627 l-17 -43 -1212 0
c-1166 0 -1216 1 -1288 19 -212 55 -369 197 -440 400 -20 59 -188 667 -188
683 0 12 30 3 108 -32 50 -23 62 -34 62 -52 0 -13 16 -81 34 -153 19 -71 50
-193 70 -270 57 -221 84 -280 145 -317 l36 -23 1300 0 c1290 0 1300 0 1335 20
33 20 39 31 119 260 45 132 116 337 156 455 l73 215 79 31 c43 17 79 30 81 29
1 -1 -31 -91 -72 -201z m-296 42 c0 -3 -27 -79 -60 -170 -33 -91 -60 -169 -60
-172 0 -11 -73 -208 -80 -217 -8 -9 -1260 -15 -1260 -6 0 11 470 196 1120 442
124 47 245 95 270 106 44 19 70 25 70 17z m-2725 -247 c66 -28 176 -74 245
-103 295 -125 490 -211 490 -218 0 -3 -168 -4 -372 -2 -205 3 -378 4 -383 4
-6 0 -17 15 -23 34 -22 61 -90 336 -83 336 3 0 60 -23 126 -51z"/>
<path d="M3285 8460 c-123 -32 -208 -69 -278 -120 -69 -51 -99 -92 -81 -110 7
-7 32 6 75 39 119 89 277 155 399 165 30 3 58 5 63 5 14 2 7 29 -9 35 -28 11
-98 5 -169 -14z"/>
<path d="M3393 8309 c-80 -13 -213 -70 -293 -125 -85 -57 -109 -86 -90 -109
17 -21 21 -20 66 20 92 83 227 144 367 166 79 13 99 23 90 45 -6 16 -56 17
-140 3z"/>
<path d="M1694 6679 c-6 -11 56 -12 73 -1 6 4 -6 8 -28 8 -22 1 -42 -2 -45 -7z"/>
<path d="M1576 6651 c-3 -5 1 -12 10 -15 22 -8 25 -4 9 11 -8 7 -16 9 -19 4z"/>
<path d="M1625 6640 c3 -5 11 -10 16 -10 6 0 7 5 4 10 -3 6 -11 10 -16 10 -6
0 -7 -4 -4 -10z"/>
<path d="M3111 9154 c0 -11 3 -14 6 -6 3 7 2 16 -1 19 -3 4 -6 -2 -5 -13z"/>
<path d="M2418 8893 c6 -2 18 -2 25 0 6 3 1 5 -13 5 -14 0 -19 -2 -12 -5z"/>
<path d="M8327 8079 c-21 -12 -47 -61 -47 -87 0 -28 35 -69 66 -76 39 -10 80
11 99 51 14 29 15 40 4 64 -21 52 -77 74 -122 48z"/>
<path d="M8912 5761 c-8 -5 -12 -16 -10 -25 2 -12 6 -10 15 9 6 14 10 25 10
25 -1 0 -8 -4 -15 -9z"/>
<path d="M652 5705 c-58 -25 -69 -99 -23 -146 39 -38 80 -39 122 -1 24 22 31
36 31 65 0 44 -15 65 -59 84 -38 15 -30 16 -71 -2z"/>
<path d="M8496 5563 c-306 -271 -558 -513 -554 -531 4 -21 25 -31 207 -95
l155 -54 53 -194 c29 -107 56 -216 59 -243 5 -36 12 -50 25 -53 24 -7 24 -4
-7 -65 -43 -84 -74 -176 -74 -216 0 -42 26 -102 94 -215 25 -43 46 -80 46 -82
0 -2 -231 -5 -512 -7 -508 -3 -513 -3 -555 -25 -22 -12 -55 -39 -72 -60 -58
-70 -61 -93 -61 -455 0 -361 0 -364 61 -433 69 -79 22 -75 859 -74 597 0 752
3 783 13 57 21 100 58 132 117 l30 54 0 345 c0 382 1 374 -69 448 -55 59 -76
65 -243 70 l-151 4 33 52 c41 64 89 159 105 209 15 49 3 100 -51 216 -21 46
-39 85 -39 86 0 1 24 5 53 8 69 7 134 30 210 74 111 65 217 183 217 240 0 13
-29 103 -65 199 l-66 176 116 110 c86 83 115 116 113 132 -3 24 -107 69 -423
182 -99 36 -215 78 -257 95 -43 16 -80 29 -82 29 -3 0 -35 -26 -70 -57z m261
-164 c176 -65 324 -119 342 -125 25 -8 -16 -41 -59 -47 -44 -6 -92 -51 -299
-281 -46 -52 7 -13 77 55 35 35 58 53 49 39 -28 -44 -137 -140 -159 -140 -36
0 -518 164 -518 176 0 7 48 56 108 110 59 55 147 136 195 181 48 46 97 83 107
83 11 0 82 -23 157 -51z m213 -252 c0 -2 -14 -16 -32 -33 l-31 -29 22 33 c18
26 41 42 41 29z m-444 -380 c27 -36 94 -219 94 -256 0 -6 -10 -11 -23 -11 -21
0 -27 12 -61 123 -21 67 -42 135 -47 151 -11 35 -11 36 -1 36 4 0 21 -20 38
-43z m122 -517 c58 -126 59 -129 24 -197 -41 -80 -66 -123 -72 -123 -11 0 -92
168 -92 191 0 14 18 64 41 113 22 48 41 91 41 97 0 29 22 -2 58 -81z m-1010
-628 c2 -22 -2 -34 -12 -38 -11 -4 -13 -11 -7 -22 11 -21 11 -18 11 -109 0
-43 4 -84 9 -92 7 -12 101 -13 579 -12 314 1 572 -1 575 -6 3 -4 7 -87 8 -183
l4 -175 -140 -8 c-77 -5 -143 -12 -147 -16 -4 -4 6 -12 22 -18 17 -6 28 -7 24
-2 -3 5 7 9 21 9 16 0 24 -4 19 -11 -4 -8 0 -8 15 0 14 8 21 8 21 1 0 -5 15
-10 33 -10 17 0 39 -5 47 -10 10 -7 -83 -9 -275 -7 l-290 2 -6 115 c-4 63 -7
146 -8 183 l-1 69 -37 -6 c-21 -3 -49 -5 -62 -6 -23 0 -23 -1 -20 -102 1 -57
2 -120 1 -140 l-2 -38 -192 0 c-106 0 -217 -3 -247 -7 l-53 -6 5 -34 c7 -42
-10 -44 -52 -4 l-31 29 0 305 c0 299 0 305 23 338 25 38 53 49 117 45 43 -2
45 -4 48 -34z m1167 3 l0 -30 -66 -3 c-66 -3 -67 -3 -72 25 -3 15 -3 31 0 36
2 4 35 7 71 5 l67 -3 0 -30z m-287 -2 l-3 -28 -310 -6 c-170 -3 -311 -6 -312
-7 -2 -1 -3 -22 -3 -46 0 -46 -11 -56 -67 -56 -21 0 -23 5 -23 48 0 26 -3 64
-6 85 l-7 37 367 0 367 0 -3 -27z m262 -683 c0 -5 -5 -10 -11 -10 -5 0 -7 5
-4 10 3 6 8 10 11 10 2 0 4 -4 4 -10z"/>
<path d="M8555 5239 c-30 -27 -36 -37 -33 -67 6 -72 102 -100 159 -46 54 51
47 103 -16 130 -50 21 -70 18 -110 -17z"/>
<path d="M2293 5275 c-46 -32 -22 -95 35 -95 37 0 65 54 44 87 -13 20 -56 25
-79 8z"/>
<path d="M1578 5263 c7 -3 16 -2 19 1 4 3 -2 6 -13 5 -11 0 -14 -3 -6 -6z"/>
<path d="M2220 4951 c-349 -5 -399 -8 -427 -23 -64 -36 -103 -125 -84 -193 17
-63 46 -101 93 -124 43 -20 57 -21 385 -21 316 0 341 -1 346 -17 40 -140 242
-896 257 -963 29 -130 150 -571 164 -599 23 -44 589 -596 788 -767 31 -27 57
-52 57 -55 1 -3 -18 -11 -41 -18 -73 -22 -198 -92 -254 -143 -156 -144 -233
-376 -190 -577 21 -101 62 -181 139 -276 109 -135 204 -192 361 -220 110 -19
128 -19 224 1 155 31 282 110 366 228 101 142 131 226 131 376 0 142 -23 223
-93 331 l-48 74 543 0 c299 0 543 -2 543 -5 0 -3 -9 -18 -21 -35 -79 -117
-115 -253 -106 -400 10 -145 45 -230 146 -358 63 -79 109 -116 207 -166 79
-40 140 -52 254 -52 108 -1 179 16 276 63 82 40 138 89 202 176 65 88 89 137
113 229 43 170 10 351 -92 500 -16 23 -29 44 -29 47 0 3 77 6 171 6 157 0 174
2 210 22 112 62 122 209 21 286 l-35 27 -1291 5 c-737 3 -1300 9 -1311 14 -26
12 -95 67 -176 141 -36 33 -108 98 -160 144 -52 46 -135 122 -184 170 -50 47
-124 118 -165 157 -41 39 -113 110 -159 157 l-84 86 -28 103 c-27 97 -80 297
-185 693 -157 593 -226 839 -248 885 -26 53 -79 86 -146 92 -25 2 -223 2 -440
-1z m1845 -3041 c72 -36 108 -70 100 -92 -3 -8 -31 -26 -61 -41 -49 -24 -55
-31 -49 -50 34 -113 -6 -226 -98 -277 -43 -25 -120 -32 -166 -15 l-25 8 22
-30 22 -31 -36 8 c-20 5 -53 21 -73 37 -20 16 -57 42 -83 57 -39 23 -47 33
-53 65 -7 43 8 142 30 193 74 177 296 256 470 168z m1980 26 c53 -16 153 -79
162 -101 6 -18 -28 -49 -76 -70 -29 -13 -33 -18 -27 -42 18 -78 18 -105 1
-150 -47 -121 -169 -182 -280 -137 -18 7 -18 6 -6 -9 7 -9 19 -17 26 -17 7 0
19 -7 26 -17 13 -15 10 -16 -31 -9 -30 5 -75 26 -137 67 -84 56 -92 64 -98
100 -14 84 25 210 90 287 76 90 231 133 350 98z"/>
<path d="M7955 4659 c-4 -6 -5 -12 -2 -15 2 -3 7 2 10 11 7 17 1 20 -8 4z"/>
<path d="M7786 4492 c-3 -5 18 -7 47 -5 75 6 81 11 15 12 -31 1 -59 -3 -62 -7z"/>
<path d="M1215 4367 c-136 -55 -195 -146 -195 -299 l0 -68 -73 0 c-86 0 -132
-20 -162 -71 -19 -33 -20 -52 -20 -509 0 -467 0 -476 22 -515 24 -46 55 -76
100 -99 29 -14 111 -16 785 -16 707 0 755 2 793 19 52 23 101 80 115 131 7 27
10 194 8 503 -3 426 -4 465 -21 490 -26 40 -76 67 -123 67 -50 0 -54 7 -54 97
0 88 -16 135 -63 189 -51 58 -106 85 -183 92 -90 7 -155 -18 -220 -83 -62 -61
-74 -97 -74 -212 l0 -83 -139 0 -139 0 -4 93 c-3 69 -10 103 -26 134 -28 54
-78 104 -128 128 -47 23 -157 30 -199 12z m121 -147 c7 0 26 -14 43 -32 29
-30 31 -36 31 -110 l0 -79 -112 3 -113 3 0 77 c1 71 3 80 29 107 30 31 57 41
91 35 11 -2 25 -4 31 -4z m816 0 c60 -17 78 -49 78 -141 l0 -79 -109 0 c-123
0 -121 -2 -121 88 0 76 26 114 90 135 22 8 22 8 62 -3z m-1132 -385 c0 -14 -4
-25 -8 -25 -4 0 -6 -75 -4 -166 3 -91 1 -289 -3 -440 -7 -262 -8 -274 -27
-274 -10 0 -30 11 -43 25 l-25 24 0 434 c0 238 3 437 7 440 3 4 28 7 55 7 45
0 48 -2 48 -25z m390 0 l0 -26 -112 3 c-109 3 -113 4 -116 26 -3 22 -2 22 112
22 l116 0 0 -25z m442 -79 c2 -85 6 -108 22 -125 27 -30 86 -28 116 4 21 23
22 30 18 125 l-5 100 120 0 120 0 -6 -67 c-5 -65 3 -157 16 -169 17 -17 77
-21 106 -6 34 16 33 12 35 161 1 50 5 76 14 78 10 4 12 -84 10 -434 l-3 -438
-67 -5 c-46 -3 -65 -9 -60 -16 4 -6 14 -13 22 -16 8 -3 -102 -7 -245 -10 -143
-3 -261 -4 -263 -3 -2 2 -5 897 -3 918 1 4 12 7 25 7 24 0 24 -2 28 -104z"/>
<path d="M2188 2973 c18 -2 45 -2 60 0 15 2 0 4 -33 4 -33 0 -45 -2 -27 -4z"/>
<path d="M590 4303 c-53 -36 -68 -84 -45 -139 21 -51 52 -73 104 -74 38 0 49
5 83 40 38 37 40 43 35 83 -12 85 -111 136 -177 90z"/>
<path d="M9220 4266 c0 -2 7 -7 16 -10 8 -3 12 -2 9 4 -6 10 -25 14 -25 6z"/>
<path d="M7590 4155 c0 -33 -2 -35 -34 -35 -26 0 -35 -5 -39 -21 -9 -33 3 -49
34 -49 22 0 29 -5 29 -19 0 -36 12 -51 40 -51 28 0 40 15 40 51 0 10 5 19 10
19 37 0 62 18 58 43 -2 17 -11 23 -40 25 -36 3 -38 5 -38 38 0 31 -2 34 -30
34 -28 0 -30 -3 -30 -35z"/>
<path d="M7891 2589 c-150 -11 -143 -8 -155 -53 -6 -22 -23 -48 -39 -60 l-28
-21 -57 31 -56 32 -112 -102 c-61 -55 -117 -111 -124 -124 -12 -20 -11 -25 14
-51 46 -48 15 -97 -64 -103 l-45 -3 -11 -50 c-6 -27 -20 -86 -30 -130 -10 -44
-19 -83 -19 -87 0 -4 20 -18 45 -30 62 -32 63 -51 1 -82 l-50 -26 24 -69 c13
-38 29 -94 36 -126 l12 -56 37 6 c41 7 110 -16 110 -35 0 -7 -9 -25 -21 -41
-26 -36 -24 -38 84 -123 127 -98 130 -100 158 -78 43 33 70 43 99 37 23 -5 29
-13 34 -43 4 -20 11 -48 17 -62 l10 -25 159 -2 c181 -2 175 -5 201 86 7 23 19
45 26 48 21 8 59 -5 91 -32 17 -14 36 -25 43 -25 17 0 239 169 239 182 0 6
-10 23 -21 40 l-22 30 26 26 c25 24 28 25 68 13 52 -16 50 -18 83 113 14 56
29 111 32 123 5 20 0 26 -41 43 -58 25 -57 47 3 75 50 23 50 20 14 180 l-28
120 -46 3 c-39 3 -51 8 -68 32 -26 37 -25 48 6 81 18 19 23 32 18 42 -15 25
-238 226 -252 227 -7 0 -30 -11 -50 -25 -40 -27 -83 -33 -100 -12 -5 6 -16 35
-24 62 l-14 50 -49 1 c-28 1 -102 -2 -164 -7z m115 -126 c21 -94 13 -86 107
-118 l86 -30 35 34 c35 34 36 34 58 15 41 -34 78 -75 78 -86 0 -6 -8 -4 -18 5
-44 40 -80 39 -129 -5 -22 -20 -22 -20 -75 6 -29 14 -75 33 -103 43 -47 17
-50 21 -55 58 l-5 40 -52 3 c-56 3 -57 3 -65 -67 -2 -19 -14 -27 -61 -41 -32
-10 -83 -30 -113 -44 -30 -14 -57 -26 -61 -26 -4 0 -19 14 -33 32 -27 32 -28
32 -53 15 -40 -26 -45 -57 -13 -82 l27 -21 -46 -97 -46 -97 -44 0 c-41 0 -43
-1 -49 -35 -5 -27 -12 -35 -28 -35 -19 0 -20 4 -14 52 4 28 9 55 12 60 3 4 24
8 48 8 41 0 44 2 71 53 15 28 35 60 43 69 13 16 12 21 -12 52 -14 19 -26 41
-26 50 0 8 21 35 47 60 l48 44 25 -19 c66 -52 57 -51 155 -14 l90 33 3 39 c4
50 12 57 80 64 31 3 63 7 69 8 7 0 15 -11 19 -26z m286 -614 c5 -191 -181
-364 -373 -346 -50 4 -169 47 -169 60 0 3 27 -4 61 -14 221 -69 432 71 455
302 8 81 24 80 26 -2z m-843 -2 c6 -24 13 -68 17 -98 l6 -55 -43 -9 c-43 -10
-44 -11 -44 -50 0 -29 -4 -41 -17 -43 -13 -2 -21 9 -32 45 -15 53 -16 52 43
85 26 14 31 23 31 55 0 52 11 113 20 113 4 0 13 -19 19 -43z m131 -377 c0 -22
-37 -70 -55 -70 -26 0 -26 20 1 65 21 37 29 43 40 34 8 -6 14 -19 14 -29z"/>
<path d="M1267 2576 c-65 -18 -114 -61 -147 -131 -18 -37 -20 -66 -20 -430 0
-389 0 -390 24 -441 31 -66 86 -119 146 -139 40 -13 89 -16 284 -13 130 2 236
2 236 0 0 -2 -13 -15 -30 -28 -16 -14 -39 -39 -51 -56 -18 -24 -20 -34 -10
-54 l11 -24 357 2 c429 4 404 -8 290 133 l-25 30 232 0 c219 0 233 1 272 22
49 26 90 72 118 133 20 43 21 61 21 420 0 404 -2 418 -54 491 -30 43 -75 76
-122 89 -55 16 -1472 12 -1532 -4z m1497 -157 c14 -11 26 -24 26 -28 0 -9 -66
-41 -85 -41 -17 0 -18 -35 -20 -383 l-1 -188 -662 1 -662 1 0 -41 0 -40 -50 0
-50 0 0 338 c0 338 0 339 23 360 12 11 33 25 47 31 16 6 282 10 716 10 685 1
692 1 718 -20z"/>
<path d="M3250 2363 c-8 -2 -21 -7 -29 -9 -8 -2 -12 -7 -9 -9 3 -3 22 1 44 9
35 13 30 21 -6 9z"/>
<path d="M3183 2313 c-3 -10 -8 -22 -11 -27 -3 -5 0 -6 5 -3 11 7 25 47 17 47
-3 0 -7 -8 -11 -17z"/>
<path d="M6961 1644 c0 -11 3 -14 6 -6 3 7 2 16 -1 19 -3 4 -6 -2 -5 -13z"/>
<path d="M6820 1546 c0 -9 7 -19 15 -23 23 -8 25 0 4 21 -17 18 -19 18 -19 2z"/>
<path d="M1603 1133 c15 -2 39 -2 55 0 15 2 2 4 -28 4 -30 0 -43 -2 -27 -4z"/>
<path d="M2618 1133 c7 -3 16 -2 19 1 4 3 -2 6 -13 5 -11 0 -14 -3 -6 -6z"/>
<path d="M3028 1133 c39 -2 105 -2 145 0 39 1 7 3 -73 3 -80 0 -112 -2 -72 -3z"/>
<path d="M4618 1133 c7 -3 16 -2 19 1 4 3 -2 6 -13 5 -11 0 -14 -3 -6 -6z"/>
<path d="M6898 1133 c12 -2 32 -2 45 0 12 2 2 4 -23 4 -25 0 -35 -2 -22 -4z"/>
<path d="M7290 820 c-8 -5 -12 -11 -10 -14 3 -2 14 2 24 10 22 15 10 19 -14 4z"/>
<path d="M7408 823 c6 -2 18 -2 25 0 6 3 1 5 -13 5 -14 0 -19 -2 -12 -5z"/>
<path d="M7803 823 c9 -2 23 -2 30 0 6 3 -1 5 -18 5 -16 0 -22 -2 -12 -5z"/>
<path d="M7267 783 c-4 -3 -7 -11 -7 -17 0 -6 5 -5 12 2 6 6 9 14 7 17 -3 3
-9 2 -12 -2z"/>
</g>
</svg>
